<svg width="357" height="404" viewBox="0 0 357 404" fill="none" xmlns="http://www.w3.org/2000/svg">
<g clip-path="url(#clip0_10651_53732)">
<rect width="357" height="404" rx="15" fill="url(#paint0_linear_10651_53732)"/>
<path d="M-30 -69.1831L386.9 -69.1831L386.9 486.083L-30 486.083L-30 -69.1831ZM386.011 485.194L386.011 416.766L317.583 416.766L317.583 485.194L386.011 485.194ZM386.011 415.767L386.011 347.45L317.583 347.45L317.583 415.767L386.011 415.767ZM386.011 346.45L386.011 278.133L317.584 278.133L317.584 346.45L386.011 346.45ZM386.011 277.133L386.011 209.083L317.583 209.083L317.583 277.133L386.011 277.133ZM386.011 207.817L386.011 139.766L317.583 139.766L317.583 207.817L386.011 207.817ZM386.011 138.767L386.011 70.4497L317.583 70.4497L317.583 138.767L386.011 138.767ZM386.011 69.4497L386.011 1.13328L317.584 1.13329L317.584 69.4497L386.011 69.4497ZM386.011 0.133283L386.011 -68.2935L317.583 -68.2935L317.583 0.133286L386.011 0.133283ZM316.584 485.194L316.584 416.766L248.267 416.766L248.267 485.194L316.584 485.194ZM316.584 415.767L316.584 347.45L248.267 347.45L248.267 415.767L316.584 415.767ZM316.584 346.45L316.584 278.133L248.267 278.133L248.267 346.45L316.584 346.45ZM316.584 277.133L316.584 209.083L248.267 209.083L248.267 277.133L316.584 277.133ZM316.584 207.817L316.584 139.766L248.267 139.766L248.267 207.817L316.584 207.817ZM316.584 138.767L316.584 70.4497L248.267 70.4497L248.267 138.767L316.584 138.767ZM316.584 69.4497L316.584 1.13329L248.267 1.13329L248.267 69.4497L316.584 69.4497ZM316.584 0.133286L316.584 -68.2935L248.267 -68.2935L248.267 0.133289L316.584 0.133286ZM247.268 346.45L247.268 278.133L178.95 278.133L178.95 346.45L247.268 346.45ZM247.268 69.4497L247.268 1.13329L178.95 1.13329L178.95 69.4497L247.268 69.4497ZM247.267 485.194L247.267 416.766L178.95 416.766L178.95 485.194L247.267 485.194ZM247.267 415.767L247.267 347.45L178.95 347.45L178.95 415.767L247.267 415.767ZM247.267 277.133L247.267 209.083L178.95 209.083L178.95 277.133L247.267 277.133ZM247.267 207.817L247.267 139.766L178.95 139.766L178.95 207.817L247.267 207.817ZM247.267 138.767L247.267 70.4497L178.95 70.4497L178.95 138.767L247.267 138.767ZM247.267 0.133289L247.267 -68.2935L178.95 -68.2935L178.95 0.133292L247.267 0.133289ZM177.95 485.194L177.95 416.766L109.633 416.766L109.633 485.194L177.95 485.194ZM177.95 415.767L177.95 347.45L109.633 347.45L109.633 415.767L177.95 415.767ZM177.95 346.45L177.95 278.133L109.634 278.133L109.634 346.45L177.95 346.45ZM177.95 277.133L177.95 209.083L109.633 209.083L109.633 277.133L177.95 277.133ZM177.95 207.817L177.95 139.766L109.633 139.766L109.633 207.817L177.95 207.817ZM177.95 138.767L177.95 70.4497L109.633 70.4497L109.633 138.767L177.95 138.767ZM177.95 69.4497L177.95 1.13329L109.634 1.13329L109.634 69.4497L177.95 69.4497ZM177.95 0.133292L177.95 -68.2935L109.633 -68.2935L109.633 0.133295L177.95 0.133292ZM108.634 485.194L108.634 416.766L40.3164 416.766L40.3164 485.194L108.634 485.194ZM108.634 415.767L108.634 347.45L40.3164 347.45L40.3164 415.767L108.634 415.767ZM108.634 346.45L108.634 278.133L40.3164 278.133L40.3164 346.45L108.634 346.45ZM108.634 277.133L108.634 209.083L40.3164 209.083L40.3164 277.133L108.634 277.133ZM108.634 207.817L108.634 139.766L40.3164 139.766L40.3164 207.817L108.634 207.817ZM108.634 138.767L108.634 70.4497L40.3164 70.4497L40.3164 138.767L108.634 138.767ZM108.634 69.4497L108.634 1.13329L40.3164 1.1333L40.3164 69.4497L108.634 69.4497ZM40.3164 0.133298L108.634 0.133295L108.634 -68.2935L40.3164 -68.2935L40.3164 0.133298ZM39.3174 346.45L39.3174 278.133L-29.1104 278.133L-29.1104 346.45L39.3174 346.45ZM39.3174 69.4497L39.3174 1.1333L-29.1104 1.1333L-29.1104 69.4497L39.3174 69.4497ZM39.3164 0.133298L39.3164 -68.2935L-29.1104 -68.2935L-29.1104 0.133301L39.3164 0.133298ZM39.3164 485.194L39.3164 416.766L-29.1104 416.766L-29.1104 485.194L39.3164 485.194ZM39.3164 415.767L39.3164 347.45L-29.1104 347.45L-29.1104 415.767L39.3164 415.767ZM39.3164 277.133L39.3164 209.083L-29.1104 209.083L-29.1104 277.133L39.3164 277.133ZM39.3164 207.817L39.3164 139.766L-29.1104 139.766L-29.1104 207.817L39.3164 207.817ZM39.3164 138.767L39.3164 70.4497L-29.1104 70.4497L-29.1104 138.767L39.3164 138.767Z" fill="#2426C1"/>
<g filter="url(#filter0_f_10651_53732)">
<circle cx="-19.1482" cy="14.8513" r="179.5" transform="rotate(135 -19.1482 14.8513)" fill="url(#paint1_linear_10651_53732)"/>
</g>
<g filter="url(#filter1_f_10651_53732)">
<circle cx="362.842" cy="394.842" r="179.5" transform="rotate(-75 362.842 394.842)" fill="url(#paint2_linear_10651_53732)"/>
</g>
</g>
<defs>
<filter id="filter0_f_10651_53732" x="-298.648" y="-264.649" width="559" height="559" filterUnits="userSpaceOnUse" color-interpolation-filters="sRGB">
<feFlood flood-opacity="0" result="BackgroundImageFix"/>
<feBlend mode="normal" in="SourceGraphic" in2="BackgroundImageFix" result="shape"/>
<feGaussianBlur stdDeviation="50" result="effect1_foregroundBlur_10651_53732"/>
</filter>
<filter id="filter1_f_10651_53732" x="83.2969" y="115.297" width="559.09" height="559.089" filterUnits="userSpaceOnUse" color-interpolation-filters="sRGB">
<feFlood flood-opacity="0" result="BackgroundImageFix"/>
<feBlend mode="normal" in="SourceGraphic" in2="BackgroundImageFix" result="shape"/>
<feGaussianBlur stdDeviation="50" result="effect1_foregroundBlur_10651_53732"/>
</filter>
<linearGradient id="paint0_linear_10651_53732" x1="311" y1="18.5" x2="17" y2="394.5" gradientUnits="userSpaceOnUse">
<stop stop-color="#281AAC"/>
<stop offset="0.692308" stop-color="#1C3DED"/>
<stop offset="1" stop-color="#281AAC"/>
</linearGradient>
<linearGradient id="paint1_linear_10651_53732" x1="78.0147" y1="-99.6994" x2="-32.1482" y2="95.8513" gradientUnits="userSpaceOnUse">
<stop stop-color="#2D0F96"/>
<stop offset="0.785422" stop-color="#9762FF"/>
</linearGradient>
<linearGradient id="paint2_linear_10651_53732" x1="460.005" y1="280.291" x2="349.842" y2="475.842" gradientUnits="userSpaceOnUse">
<stop stop-color="#2D0F96"/>
<stop offset="0.785422" stop-color="#9762FF"/>
</linearGradient>
<clipPath id="clip0_10651_53732">
<rect width="357" height="404" rx="15" fill="white"/>
</clipPath>
</defs>
</svg>
